# xmcd CD database file
#
# Track frame offsets:
#	150
#	11968
#	22795
#	35240
#	55722
#	68116
#	85077
#	107674
#	117264
#	135347
#	180907
#	192424
#	206928
#	221644
#	245799
#	257233
#
# Disc length: 3656 seconds
#
# Submitted via: cddb-tool 0.4.7
#
#blues,classical,country,data,folk,jazz,newage,reggae,rock,soundtrack,misc
#CATEGORY=blues
# Revision: 0
# Processed by: cddbd v1.5.2PL0 Copyright (c) Steve Scherf et al.
#
DISCID=e60e4610
DTITLE=Matthias Brodowy - Schwarz und weiß und doch kein Schach
DYEAR=2008
DGENRE=Comedy
TTITLE0=Vom Tellerwäscher zum Millionär
TTITLE1=Asche zu Asche
TTITLE2=Dekadenz
TTITLE3=Jamma Jamma
TTITLE4=Wenn ich 95 bin
TTITLE5=Grand Prix: Lass uns zusammen stehen
TTITLE6=Stadt mit Keks
TTITLE7=Singledingeldingsong
TTITLE8=Arie von der letzten Praline
TTITLE9=Albtraum
TTITLE10=Wanderer zwischen den Zeilen
TTITLE11=Eintritt frei und andere lügen
TTITLE12=YETI (Extreme Musiziering)
TTITLE13=Ufos über Berlin
TTITLE14=Schöner leben
TTITLE15=Deine Welt
EXTD=
EXTT0=
EXTT1=
EXTT2=
EXTT3=
EXTT4=
EXTT5=
EXTT6=
EXTT7=
EXTT8=
EXTT9=
EXTT10=
EXTT11=
EXTT12=
EXTT13=
EXTT14=
EXTT15=
PLAYORDER=
